<svg xmlns="http://www.w3.org/2000/svg" viewBox="0 0 1595.85 1908.98">
  <defs>
    <style>
      .cls-1{fill:#0091d9}
    </style>
  </defs>
  <g id="Layer_2" data-name="Layer 2">
    <g id="Layer_1-2" data-name="Layer 1">
      <path d="m1152.86 1166.34-.59-.54-759.25-690.63L1.69 878.76 0 877.12l392.92-405.23.84.77 759.5 690.85 426.45-211.86-437.02 143.62-.51-.66L300.79 1.44 302.66 0l840.88 1092.51 451-148.21.89 2.17-442.57 219.87z" class="cls-1"/>
      <path d="m606.19 1796.06-1.54-1.78 974.2-836.63-425.76 286.81-.64-.39-749.54-455.68-249.15 148.94-1.21-2.02 250.37-149.67.6.37 749.51 455.66 441.22-297.23 1.42 1.87-989.48 849.75z" class="cls-1"/>
      <path d="m436.09 1908.98-2.1-1.07 718.76-1414.14 1.15 1.17 430.19 437.78-429.33-582.35-299.94 711.18-2.17-.91 301.55-715 1.23 1.67 440.43 597.41-1.79 1.52-440.7-448.49-717.28 1411.23z" class="cls-1"/>
      <path d="M1594.24 946.39 1149.38 643l-.12-.17-172.13-241.32 618.55 543Zm-443.19-305.15 428.57 292.33-588.76-516.88Z" class="cls-1"/>
      <path d="m1594.53 946.53-438.07-147.2-.21-.47-173.33-389.28 2.11-1 164.63 308 445.78 227.86Zm-436.34-149.1 422.07 141.82-432.33-221-.17-.33-149.39-279.44Z" class="cls-1"/>
      <path d="m1150.77 956.69-.26-.86-167.64-546.39 2.22-.77 178.77 459.7 431.25 75.88-.18 2.34ZM994.55 439.5l158 514.79 430.45-9.78-420.81-74-.24-.62Z" class="cls-1"/>
      <path d="m107.74 1734.57-1.33-1.95L1138.4 1026l.24-.04 456.06-81.7.42 2.32-455.81 81.65-1031.57 706.34z" class="cls-1"/>
    </g>
  </g>
</svg>