<svg xmlns="http://www.w3.org/2000/svg" viewBox="0 0 1595.85 1908.98"><defs><style>.cls-1{fill:#0091d9;}</style></defs><title>Asset 2</title><g id="Layer_2" data-name="Layer 2"><g id="Layer_1-2" data-name="Layer 1"><polygon class="cls-1" points="1152.86 1166.34 1152.27 1165.8 393.02 475.17 1.69 878.76 0 877.12 392.92 471.89 393.76 472.66 1153.26 1163.51 1579.71 951.65 1142.69 1095.27 1142.18 1094.61 300.79 1.44 302.66 0 1143.54 1092.51 1594.54 944.3 1595.43 946.47 1152.86 1166.34"/><polygon class="cls-1" points="606.19 1796.06 604.65 1794.28 1578.85 957.65 1153.09 1244.46 1152.45 1244.07 402.91 788.39 153.76 937.33 152.55 935.31 402.92 785.64 403.52 786.01 1153.03 1241.67 1594.25 944.44 1595.67 946.31 606.19 1796.06"/><polygon class="cls-1" points="436.09 1908.98 433.99 1907.91 1152.75 493.77 1153.9 494.94 1584.09 932.72 1154.76 350.37 854.82 1061.55 852.65 1060.64 1154.2 345.64 1155.43 347.31 1595.86 944.72 1594.07 946.24 1153.37 497.75 436.09 1908.98"/><path class="cls-1" d="M1594.24,946.39,1149.38,643l-.12-.17L977.13,401.51l618.55,543ZM1151.05,641.24l428.57,292.33L990.86,416.69Z"/><path class="cls-1" d="M1594.53,946.53l-438.07-147.2-.21-.47L982.92,409.58l2.11-1,164.63,308,445.78,227.86Zm-436.34-149.1,422.07,141.82-432.33-221-.17-.33L998.37,438.48Z"/><path class="cls-1" d="M1150.77,956.69l-.26-.86L982.87,409.44l2.22-.77,178.77,459.7,431.25,75.88-.18,2.34ZM994.55,439.5l158,514.79L1583,944.51l-420.81-74-.24-.62Z"/><polygon class="cls-1" points="107.74 1734.57 106.41 1732.62 1138.4 1026 1138.64 1025.96 1594.7 944.26 1595.12 946.58 1139.31 1028.23 107.74 1734.57"/></g></g></svg>